HIERARCHY
ROOT Hips
{
    OFFSET   0.000000   0.000000   0.000000
    CHANNELS 6 Xposition Yposition Zposition Zrotation Xrotation Yrotation
    JOINT Chest
    {
        OFFSET   0.000000   8.007230   0.000000
        CHANNELS 3 Zrotation Xrotation Yrotation
        JOINT Chest2
        {
            OFFSET   0.000000  22.077100   0.000000
            CHANNELS 3 Zrotation Xrotation Yrotation
            JOINT Neck
            {
                OFFSET   0.000000  23.254800  -0.000021
                CHANNELS 3 Zrotation Xrotation Yrotation
                JOINT Head
                {
                    OFFSET   0.000000  14.370000   1.956610
                    CHANNELS 3 Zrotation Xrotation Yrotation
                    End Site
                    {
                        OFFSET   0.000000  19.566000   0.000000
                    }
                }
            }
            JOINT LeftCollar
            {
                OFFSET   3.911900  19.017000  -0.467063
                CHANNELS 3 Zrotation Xrotation Yrotation
                JOINT LeftShoulder
                {
                    OFFSET  10.383700   0.000000   0.000000
                    CHANNELS 3 Zrotation Xrotation Yrotation
                    JOINT LeftElbow
                    {
                        OFFSET  26.662100   0.001529   0.000325
                        CHANNELS 3 Zrotation Xrotation Yrotation
                        JOINT LeftWrist
                        {
                            OFFSET  28.869000  -0.000011  -0.000096
                            CHANNELS 3 Zrotation Xrotation Yrotation
                            JOINT LeftFinger0
                            {
                                OFFSET   2.044650  -2.323460   3.252850
                                CHANNELS 3 Zrotation Xrotation Yrotation
                                JOINT LeftFinger01
                                {
                                    OFFSET   3.088130   0.000000   0.000000
                                    CHANNELS 3 Zrotation Xrotation Yrotation
                                    JOINT LeftFinger02
                                    {
                                        OFFSET   2.639460   0.000000   0.000000
                                        CHANNELS 3 Zrotation Xrotation Yrotation
                                        End Site
                                        {
                                            OFFSET   2.582190   0.000000   0.000000
                                        }
                                    }
                                }
                            }
                            JOINT LeftFinger1
                            {
                                OFFSET   8.364480   0.000000   3.252850
                                CHANNELS 3 Zrotation Xrotation Yrotation
                                JOINT LeftFinger11
                                {
                                    OFFSET   4.646930   0.000000   0.000000
                                    CHANNELS 3 Zrotation Xrotation Yrotation
                                    JOINT LeftFinger12
                                    {
                                        OFFSET   2.323460   0.000000   0.000000
                                        CHANNELS 3 Zrotation Xrotation Yrotation
                                        End Site
                                        {
                                            OFFSET   2.273050   0.000000   0.000000
                                        }
                                    }
                                }
                            }
                            JOINT LeftFinger2
                            {
                                OFFSET   8.364480   0.000016   1.078090
                                CHANNELS 3 Zrotation Xrotation Yrotation
                                JOINT LeftFinger21
                                {
                                    OFFSET   5.111620   0.000000   0.000000
                                    CHANNELS 3 Zrotation Xrotation Yrotation
                                    JOINT LeftFinger22
                                    {
                                        OFFSET   2.788160   0.000017   0.000000
                                        CHANNELS 3 Zrotation Xrotation Yrotation
                                        End Site
                                        {
                                            OFFSET   2.727660   0.000000   0.000000
                                        }
                                    }
                                }
                            }
                            JOINT LeftFinger3
                            {
                                OFFSET   7.899780   0.000015  -1.078090
                                CHANNELS 3 Zrotation Xrotation Yrotation
                                JOINT LeftFinger31
                                {
                                    OFFSET   4.646920   0.000000   0.000000
                                    CHANNELS 3 Zrotation Xrotation Yrotation
                                    JOINT LeftFinger32
                                    {
                                        OFFSET   2.323470   0.000000   0.000000
                                        CHANNELS 3 Zrotation Xrotation Yrotation
                                        End Site
                                        {
                                            OFFSET   2.273050   0.000000   0.000000
                                        }
                                    }
                                }
                            }
                            JOINT LeftFinger4
                            {
                                OFFSET   7.435090   0.000000  -3.252850
                                CHANNELS 3 Zrotation Xrotation Yrotation
                                JOINT LeftFinger41
                                {
                                    OFFSET   3.717550   0.000000   0.000000
                                    CHANNELS 3 Zrotation Xrotation Yrotation
                                    JOINT LeftFinger42
                                    {
                                        OFFSET   1.858760   0.000000   0.000000
                                        CHANNELS 3 Zrotation Xrotation Yrotation
                                        End Site
                                        {
                                            OFFSET   1.818440   0.000000   0.000000
                                        }
                                    }
                                }
                            }
                        }
                    }
                }
            }
            JOINT RightCollar
            {
                OFFSET  -3.911900  19.017000  -0.467062
                CHANNELS 3 Zrotation Xrotation Yrotation
                JOINT RightShoulder
                {
                    OFFSET -10.383700   0.000015   0.000000
                    CHANNELS 3 Zrotation Xrotation Yrotation
                    JOINT RightElbow
                    {
                        OFFSET -26.662100   0.001341   0.000385
                        CHANNELS 3 Zrotation Xrotation Yrotation
                        JOINT RightWrist
                        {
                            OFFSET -28.869000   0.000025  -0.000080
                            CHANNELS 3 Zrotation Xrotation Yrotation
                            JOINT RightFinger0
                            {
                                OFFSET  -2.044650  -2.323490   3.252850
                                CHANNELS 3 Zrotation Xrotation Yrotation
                                JOINT RightFinger01
                                {
                                    OFFSET  -3.088130   0.000000   0.000000
                                    CHANNELS 3 Zrotation Xrotation Yrotation
                                    JOINT RightFinger02
                                    {
                                        OFFSET  -2.639460   0.000000   0.000000
                                        CHANNELS 3 Zrotation Xrotation Yrotation
                                        End Site
                                        {
                                            OFFSET  -2.582190   0.000000   0.000000
                                        }
                                    }
                                }
                            }
                            JOINT RightFinger1
                            {
                                OFFSET  -8.364480   0.000000   3.252850
                                CHANNELS 3 Zrotation Xrotation Yrotation
                                JOINT RightFinger11
                                {
                                    OFFSET  -4.646930   0.000000   0.000000
                                    CHANNELS 3 Zrotation Xrotation Yrotation
                                    JOINT RightFinger12
                                    {
                                        OFFSET  -2.323470   0.000000   0.000000
                                        CHANNELS 3 Zrotation Xrotation Yrotation
                                        End Site
                                        {
                                            OFFSET  -2.273050   0.000000   0.000000
                                        }
                                    }
                                }
                            }
                            JOINT RightFinger2
                            {
                                OFFSET  -8.364480   0.000000   1.078090
                                CHANNELS 3 Zrotation Xrotation Yrotation
                                JOINT RightFinger21
                                {
                                    OFFSET  -5.111610   0.000000   0.000000
                                    CHANNELS 3 Zrotation Xrotation Yrotation
                                    JOINT RightFinger22
                                    {
                                        OFFSET  -2.788160   0.000000   0.000000
                                        CHANNELS 3 Zrotation Xrotation Yrotation
                                        End Site
                                        {
                                            OFFSET  -2.727660   0.000000   0.000000
                                        }
                                    }
                                }
                            }
                            JOINT RightFinger3
                            {
                                OFFSET  -7.899780   0.000000  -1.078090
                                CHANNELS 3 Zrotation Xrotation Yrotation
                                JOINT RightFinger31
                                {
                                    OFFSET  -4.646920   0.000000   0.000000
                                    CHANNELS 3 Zrotation Xrotation Yrotation
                                    JOINT RightFinger32
                                    {
                                        OFFSET  -2.323470   0.000000   0.000000
                                        CHANNELS 3 Zrotation Xrotation Yrotation
                                        End Site
                                        {
                                            OFFSET  -2.273050   0.000000   0.000000
                                        }
                                    }
                                }
                            }
                            JOINT RightFinger4
                            {
                                OFFSET  -7.435090   0.000000  -3.252850
                                CHANNELS 3 Zrotation Xrotation Yrotation
                                JOINT RightFinger41
                                {
                                    OFFSET  -3.717550   0.000000   0.000000
                                    CHANNELS 3 Zrotation Xrotation Yrotation
                                    JOINT RightFinger42
                                    {
                                        OFFSET  -1.858770   0.000000   0.000000
                                        CHANNELS 3 Zrotation Xrotation Yrotation
                                        End Site
                                        {
                                            OFFSET  -1.818440   0.000000   0.000000
                                        }
                                    }
                                }
                            }
                        }
                    }
                }
            }
        }
    }
    JOINT LeftHip
    {
        OFFSET   9.783010   0.000000   0.000000
        CHANNELS 3 Zrotation Xrotation Yrotation
        JOINT LeftKnee
        {
            OFFSET   0.000070 -41.789100   0.000028
            CHANNELS 3 Zrotation Xrotation Yrotation
            JOINT LeftAnkle
            {
                OFFSET   0.000087 -41.133200  -0.000100
                CHANNELS 3 Zrotation Xrotation Yrotation
                JOINT LeftToe
                {
                    OFFSET   0.000000  -6.358960  14.674500
                    CHANNELS 3 Zrotation Xrotation Yrotation
                    End Site
                    {
                        OFFSET   0.000000   0.000000   3.913200
                    }
                }
            }
        }
    }
    JOINT RightHip
    {
        OFFSET  -9.783020   0.000000   0.000000
        CHANNELS 3 Zrotation Xrotation Yrotation
        JOINT RightKnee
        {
            OFFSET   0.000044 -41.789100  -0.000870
            CHANNELS 3 Zrotation Xrotation Yrotation
            JOINT RightAnkle
            {
                OFFSET  -0.000090 -41.133200  -0.000245
                CHANNELS 3 Zrotation Xrotation Yrotation
                JOINT RightToe
                {
                    OFFSET   0.000000  -6.358960  14.674500
                    CHANNELS 3 Zrotation Xrotation Yrotation
                    End Site
                    {
                        OFFSET   0.000000   0.000000   3.913200
                    }
                }
            }
        }
    }
}
MOTION
Frames: 4
Frame Time:   0.016667
 -6.692610  87.612000  -1.921110   3.535250 -28.157500   7.014560   4.113060  15.373700  -2.332820   9.434530  30.508900  -6.203880   2.016620 -10.570100   0.368811   3.635440 -21.353400   9.650320   7.534180  -6.970710  12.277200 -46.896300  43.887000 -60.488000  -8.271540  -6.308990 -119.384000 -41.028100 -29.874800 -27.189300  47.776600  46.206700 -91.856800 -14.820100  -0.001099  -0.000267  -2.410030  -0.000595   0.000601 -32.708900  -3.808380   5.904730 -26.922600   0.000296  -0.001249 -18.845900   0.004397   0.006442 -10.385200  -2.358650  12.656300 -10.646700  -0.003369  -0.007171  -7.090760  -0.002378  -0.007774 -31.434700  -6.795700  10.954700 -48.130500   0.000700   0.011355 -32.054900  -0.000689   0.000812 -47.582900 -11.700000  10.496400 -72.992200   0.011674  -0.010633 -48.612800   0.010325   0.000775  -2.106400  -9.718820   9.447770  34.508800  33.761000  61.415100   2.529280  -7.132410 120.335000  -2.610950 -17.042900  19.571200 -39.447300  38.101600  81.650700 -16.651600  -0.000166  -0.002281 -13.325800  -0.001519  -0.005589  36.529000  -3.643210  -4.903990  30.015100   0.009668   0.008600  21.010500   0.009128   0.004095  30.370500  -3.098500  -5.266360  45.804800   0.008699   0.005468  30.506000   0.007037  -0.006333  34.139200  -5.222430  -7.647210  51.732600   0.007423   0.002209  34.454000   0.004967  -0.001381  44.908300  -6.552800  -6.538630  67.923900  -0.001444   0.000746  45.237300  -0.008590   0.002488   4.725820  16.038800  -3.165500   1.692020  27.758200   7.403240  -8.109060 -14.328900  -5.027990  -0.000000   0.000000   0.000000   3.454030  22.869700  -9.033460  -1.260660  17.070000 -14.625700   2.786750 -12.952000   3.572850   0.000000   0.000000   0.000000
 -6.643190  87.613200  -1.848860   3.549100 -28.097500   7.098250   4.107850  15.343100  -2.328520   9.417450  30.448600  -6.188570   2.020580 -10.553400   0.368396   3.647230 -21.318900   9.607210   7.561750  -6.921570  12.263800 -46.772400  43.845900 -60.607000  -8.236800  -6.460620 -119.405000 -41.030100 -29.876400 -27.193800  47.616800  46.115000 -91.707500 -14.733700  -0.001082  -0.000283  -2.366830  -0.000588   0.000473 -32.894800  -3.803100   5.855080 -27.073100   0.000306  -0.001058 -18.951200   0.004473   0.006522 -10.432500  -2.367470  12.644900 -10.694800  -0.003458  -0.007268  -7.122780  -0.002431  -0.007860 -31.489000  -6.800730  10.941600 -48.211700   0.000709   0.011437 -32.109000  -0.000687   0.000711 -47.632300 -11.691400  10.471400 -73.061000   0.011802  -0.010693 -48.658600   0.010404   0.000789  -2.119470  -9.670250   9.422920  35.089800  33.778300  61.056700   2.572600  -6.734760 120.342000  -2.358680 -16.695000  19.793400 -39.697000  38.484900  82.053100 -16.670600  -0.000131  -0.002373 -13.335300  -0.001518  -0.005630  35.977500  -3.673310  -5.045850  29.568600   0.009800   0.008742  20.698000   0.009224   0.004119  29.639100  -3.099900  -5.420360  44.773000   0.008810   0.005510  29.818800   0.007091  -0.006395  33.414500  -5.191470  -7.812100  50.653800   0.007488   0.002225  33.735500   0.005009  -0.001391  44.170800  -6.549960  -6.707790  66.831800  -0.001551   0.000778  44.510000  -0.008762   0.002593   4.711070  16.005300  -3.171160   1.693770  27.767800   7.380240  -8.083270 -14.364900  -5.057880   0.000000   0.000000  -0.000000   3.447970  22.863300  -9.031860  -1.258170  17.076400 -14.656700   2.802040 -12.971800   3.524920  -0.000000   0.000000  -0.000000
 -6.591750  87.612200  -1.776600   3.555390 -28.042000   7.180860   4.106100  15.315500  -2.325920   9.408010  30.393800  -6.178010   2.021870 -10.527400   0.367565   3.652950 -21.265400   9.600240   7.605440  -6.881870  12.254500 -46.663200  43.808500 -60.673200  -8.206910  -6.628910 -119.433000 -41.085000 -29.856600 -27.228100  47.490300  45.990800 -91.512100 -14.790100  -0.001083  -0.000326  -2.395060  -0.000571   0.000362 -33.050500  -3.798370   5.813580 -27.199100   0.000335  -0.000845 -19.039400   0.004539   0.006596 -10.413600  -2.363940  12.649400 -10.675700  -0.003521  -0.007363  -7.110000  -0.002490  -0.007937 -31.520600  -6.808790  10.942700 -48.260300   0.000714   0.011515 -32.141400  -0.000676   0.000614 -47.553400 -11.705000  10.511700 -72.950800   0.011908  -0.010746 -48.585200   0.010483   0.000806  -2.109830  -9.612260   9.408170  35.431000  33.760500  60.771000   2.625070  -6.412100 120.367000  -2.114880 -16.450000  20.027400 -39.870500  38.743400  82.332400 -16.686800  -0.000066  -0.002471 -13.343400  -0.001540  -0.005669  35.417000  -3.702850  -5.190690  29.114900   0.009931   0.008898  20.380400   0.009318   0.004146  28.973600  -3.101790  -5.573270  43.787400   0.008915   0.005556  29.162400   0.007148  -0.006449  32.707600  -5.159600  -7.973440  49.601200   0.007552   0.002243  33.034400   0.005052  -0.001399  43.447900  -6.547010  -6.874330  65.760900  -0.001666   0.000814  43.796900  -0.008934   0.002704   4.713280  15.978400  -3.152700   1.701890  27.783800   7.339770  -8.056600 -14.413000  -5.103580  -0.000000   0.000000   0.000000   3.446440  22.858300  -9.026760  -1.251290  17.091600 -14.669000   2.820620 -12.995800   3.455270   0.000000   0.000000   0.000000
 -6.538570  87.608900  -1.703330   3.550490 -27.992100   7.256120   4.105040  15.289800  -2.325220   9.403470  30.342800  -6.172920   2.021960 -10.494600   0.366718   3.652650 -21.198900   9.592440   7.655730  -6.846500  12.250100 -46.583800  43.789900 -60.697600  -8.192200  -6.728250 -119.452000 -41.164100 -29.831700 -27.284800  47.388900  45.868800 -91.323400 -14.931600  -0.001084  -0.000355  -2.465800  -0.000552   0.000251 -33.169600  -3.794810   5.781870 -27.295600   0.000368  -0.000615 -19.106900   0.004602   0.006671 -10.382200  -2.358080  12.657000 -10.643800  -0.003582  -0.007450  -7.088740  -0.002550  -0.008011 -31.528400  -6.813890  10.945600 -48.273000   0.000721   0.011586 -32.149900  -0.000668   0.000522 -47.423700 -11.727300  10.578100 -72.769600   0.012005  -0.010797 -48.464600   0.010560   0.000821  -2.098850  -9.550940   9.402880  35.617200  33.711500  60.593100   2.668090  -6.235510 120.376000  -1.946090 -16.316900  20.263300 -39.959500  38.873500  82.475400 -16.696000   0.000000  -0.002572 -13.348000  -0.001562  -0.005704  35.078800  -3.720450  -5.278200  28.841200   0.010061   0.009057  20.188800   0.009409   0.004163  28.587400  -3.103800  -5.664790  43.205300   0.009018   0.005599  28.774800   0.007206  -0.006500  32.287100  -5.140300  -8.069530  48.974800   0.007612   0.002262  32.617200   0.005093  -0.001406  43.011800  -6.545190  -6.973720  65.115600  -0.001787   0.000847  43.367100  -0.009104   0.002818   4.725290  15.955000  -3.122400   1.712670  27.809100   7.291990  -8.034130 -14.470800  -5.152420   0.000000   0.000000  -0.000000   3.452060  22.856300  -9.020130  -1.246240  17.107600 -14.672700   2.838690 -13.010900   3.373430  -0.000000   0.000000   0.000000
